<svg width="71" height="47" viewBox="0 0 71 47" fill="none" xmlns="http://www.w3.org/2000/svg">
<g clip-path="url(#clip0_30_94)">
<path d="M64.2966 20.7332V22.9029H65.0825C65.9115 22.9029 66.5613 22.5937 66.5613 21.7689C66.5613 21.223 66.2932 20.7309 65.2483 20.7309C64.9212 20.7309 64.744 20.7192 64.2966 20.7332ZM62.125 28.3974V18.6057C62.6543 18.6057 65.0825 18.6057 65.355 18.6057C67.9469 18.6057 68.869 19.9342 68.869 21.7407C68.869 23.559 67.7833 24.3017 67.2676 24.5689L70.0138 28.3974H67.3812L65.0962 25.0023H64.2966V28.3974H62.125Z" fill="#FF4438"/>
<path d="M59.167 24.1846C59.167 27.179 57.3523 28.3974 55.35 28.3974C52.9476 28.3974 51.2781 26.9564 51.2781 24.0862V18.6057H53.4147V23.6106C53.4147 25.1359 53.8549 26.298 55.35 26.298C56.6439 26.298 57.0306 25.3046 57.0306 23.737V18.6057H59.167V24.1846Z" fill="#FF4438"/>
<path d="M46.3472 47H0V0H46.3472V16.0808H44.1986V2.17882H2.14631V44.8212H44.1986V30.8142H46.3472V47Z" fill="#FF4438"/>
<path d="M36.8031 28.3974L32.5112 22.5214V28.3974H30.5698V18.6057H32.2256L36.5196 24.5074L36.5153 18.6057H38.4544L38.4588 28.3974H36.8031Z" fill="#FF4438"/>
<path d="M41.417 18.6057H48.3198V20.7036H45.8196V28.3974H43.9152V20.7036H41.417V18.6057Z" fill="#FF4438"/>
<path d="M9.86157 18.6057H11.9588V22.8717L14.9599 18.6057H17.4762L14.0298 23.1246L17.7505 28.3974H15.0916L11.9588 23.7381V28.3974H9.86157V18.6057Z" fill="#FF4438"/>
<path d="M23.1733 26.3695C24.7599 26.3695 25.583 25.0978 25.583 23.5016C25.583 21.77 24.5212 20.6336 23.1733 20.6336C21.7906 20.6336 20.7658 21.77 20.7658 23.5016C20.7658 25.1234 21.8379 26.3695 23.1733 26.3695ZM23.1733 18.6057C25.7146 18.6057 27.6118 20.4842 27.6118 23.5016C27.6118 26.3695 25.7146 28.3974 23.1733 28.3974C20.6341 28.3974 18.7368 26.5166 18.7368 23.5016C18.7368 20.755 20.5148 18.6057 23.1733 18.6057Z" fill="#FF4438"/>
</g>
<defs>
<clipPath id="clip0_30_94">
<rect width="71" height="47" fill="white"/>
</clipPath>
</defs>
</svg>
