<svg width="397" height="555" viewBox="0 0 397 555" fill="none" xmlns="http://www.w3.org/2000/svg">
<g opacity="0.02">
<path fill-rule="evenodd" clip-rule="evenodd" d="M-157 15.3984C-156.095 17.21 -155.19 19.9273 -155.19 22.6446C-153.38 39.8545 -147.949 56.1586 -140.709 71.5569C-135.278 83.3321 -128.943 95.1074 -120.797 105.071C-115.366 112.317 -109.936 119.563 -103.601 125.904C-94.55 135.868 -82.784 144.02 -71.9231 152.172C-65.5875 156.701 -60.1569 155.795 -54.7264 154.889C-47.4858 153.983 -41.1503 153.077 -33.9097 153.077C-40.2452 155.795 -46.5809 158.512 -53.8215 162.135C-46.5809 165.758 -39.3404 169.382 -33.0049 173.911C-23.3507 179.949 -13.3944 185.988 -3.13684 192.026C2.29361 195.65 7.72397 195.65 13.1544 196.555C19.49 197.461 25.8253 198.367 32.1608 199.273C25.5236 199.876 18.5848 200.782 11.3442 201.99C18.5848 208.33 25.8253 214.671 32.1608 221.917C38.4964 229.163 44.8318 237.315 48.4521 247.279C50.2623 251.808 52.9777 252.714 56.5981 253.62C68.6657 257.243 81.0349 260.866 93.706 264.489C93.1026 264.489 92.8011 264.791 92.8011 265.395C78.3199 262.979 63.8388 260.262 49.3575 257.243C49.3575 257.847 49.3575 258.451 49.3575 259.054C62.0286 265.697 74.6998 272.339 87.3709 278.981C82.8455 278.076 79.225 278.076 74.6996 277.17C70.1742 275.358 66.5537 274.453 62.0283 272.641C62.0283 273.245 61.7268 273.547 61.1234 273.547C64.7437 281.699 68.3642 289.851 71.9845 297.097C77.4149 307.061 83.7502 316.119 89.1806 325.177C96.4212 336.952 106.377 345.104 117.238 352.35C131.72 361.408 147.106 365.937 163.397 369.56C167.017 370.466 171.543 370.466 176.068 371.372C158.872 372.277 142.58 367.749 125.384 363.22C151.631 382.241 178.784 400.357 212.271 404.886C201.411 405.791 192.36 404.886 182.404 402.168C173.353 399.451 163.397 395.828 153.441 394.016C164.302 399.451 174.258 403.98 184.214 408.509C194.17 412.132 205.031 416.661 216.797 415.755C216.797 415.755 216.797 416.057 216.797 416.661C210.16 418.472 203.221 420.586 195.98 423.001C195.98 423.001 195.98 423.303 195.98 423.907C204.428 423.303 212.875 422.699 221.322 422.096C221.322 422.096 221.624 422.398 222.227 423.001C214.987 429.04 208.048 435.079 201.41 441.117C210.461 438.4 220.417 434.776 226.753 425.719C226.753 426.322 227.055 426.624 227.658 426.624C224.641 433.871 221.624 441.419 218.607 449.269C219.211 449.269 219.512 449.269 219.512 449.269C224.339 442.627 229.166 435.984 233.993 429.342C233.993 439.305 231.278 448.363 233.993 457.421C236.407 447.759 239.122 437.796 242.139 427.53C242.139 427.53 242.44 427.53 243.044 427.53C244.854 432.059 246.664 435.682 248.475 440.211C252.095 449.269 255.715 457.421 258.43 466.479C260.24 471.008 260.24 477.348 260.24 481.877C260.24 487.312 262.051 490.935 264.766 495.464C272.007 505.126 279.247 515.089 286.488 525.355C288.902 528.978 291.013 532.903 292.823 537.13C293.728 539.847 293.728 542.565 294.633 545.282C296.443 551.321 300.064 554.34 305.494 554.34C319.071 554.34 332.647 552.529 345.318 549.811C358.894 547.094 371.565 544.376 384.236 538.036C388.762 535.318 393.287 533.507 396.002 527.167C396.002 527.167 396.907 527.167 396.907 526.261C396.907 525.053 396.907 523.845 396.907 522.638C393.287 515.391 386.046 510.862 379.711 508.145C372.47 503.616 364.325 500.899 357.084 499.087C341.396 494.256 325.708 492.747 310.02 494.558C311.227 494.558 312.131 494.86 312.735 495.464C329.931 495.464 346.223 498.181 362.514 504.522C369.755 507.239 376.09 510.862 380.616 517.203C384.236 520.826 384.236 525.355 380.616 528.072C375.185 531.695 369.755 535.318 363.42 537.13C354.369 539.847 346.223 541.659 337.172 543.471C328.725 544.678 320.579 545.282 312.735 545.282C305.494 546.188 304.589 544.376 302.779 538.036C298.254 520.826 293.728 502.71 288.298 485.5C282.867 467.385 276.532 450.175 270.196 432.059C259.335 402.168 243.949 375.901 227.658 349.633C218.607 336.046 209.556 323.365 200.506 309.778C195.075 301.928 189.041 294.38 182.404 287.134C168.828 270.83 155.251 254.525 140.77 239.127C130.814 229.163 120.859 219.2 109.998 211.048C99.1369 201.99 88.2756 193.234 77.4147 184.78C65.347 176.326 52.9778 168.476 40.3068 161.229C29.4458 154.587 18.2831 148.247 6.81879 142.208C-8.56754 134.962 -23.0488 127.715 -38.4351 120.469C-54.1231 113.223 -69.8112 105.675 -85.4992 97.8246C-85.4992 97.8246 -85.4992 97.5229 -85.4992 96.919C-83.6891 97.8248 -81.8786 97.8247 -80.0685 98.7304C-61.9669 106.882 -43.8657 114.129 -26.6692 122.281C-11.2829 129.527 3.19836 137.679 18.5847 144.925C29.4456 151.266 40.3065 155.795 50.2624 163.041C65.9504 172.703 81.035 183.27 95.5163 194.744C104.567 201.99 114.523 210.142 123.574 218.294C141.676 234.598 157.967 251.808 174.258 270.829C184.516 282.907 194.471 295.588 204.126 308.872C214.987 324.573 225.244 340.575 234.898 356.879C243.044 371.372 251.19 386.77 258.43 401.262C262.956 409.414 266.576 417.567 270.196 424.813C271.101 426.624 272.007 427.53 272.912 427.53C277.739 427.53 282.566 427.53 287.393 427.53C288.298 427.53 289.203 427.53 291.013 426.624C285.583 425.719 281.057 424.813 274.722 424.813C290.108 417.567 301.874 408.509 307.305 391.299C298.254 398.545 287.996 404.282 276.532 408.509C294.633 390.393 303.684 368.654 301.874 342.386C293.728 362.314 279.247 376.806 263.861 390.393C267.481 375.297 271.101 360.2 274.722 345.104C274.118 345.104 273.515 345.104 272.912 345.104C268.688 355.369 264.464 365.937 260.24 376.806C259.637 376.806 259.336 376.504 259.336 375.9C259.336 365.635 260.241 355.369 262.051 345.104C263.861 335.14 266.576 325.176 269.291 315.213C262.051 325.176 256.62 336.046 251.19 347.821C251.793 342.386 252.397 336.65 253 330.611C253.603 325.177 253.905 319.742 253.905 314.307C253.905 308.269 253.301 302.532 252.095 297.097C250.888 303.136 249.681 309.174 248.475 315.213C247.57 280.793 239.424 250.902 222.227 222.823C221.624 222.823 221.322 222.823 221.322 222.823C221.322 224.635 221.322 226.446 221.322 228.258C222.227 229.164 222.227 230.975 223.133 234.598C221.322 232.787 220.417 232.787 219.512 230.975C213.176 216.482 204.126 203.801 192.36 192.932C182.102 182.063 170.939 173.307 158.872 166.664C157.062 165.457 155.553 164.551 154.346 163.947C153.743 163.343 153.139 163.343 152.536 163.947C162.19 174.213 170.035 185.988 176.068 199.273C181.499 212.859 186.024 226.446 186.929 241.845C185.119 236.41 183.309 231.277 181.499 226.446C176.068 211.954 168.828 198.367 160.682 185.686C156.157 178.44 150.726 171.193 145.296 164.853C138.96 158.512 131.719 152.172 124.479 147.643C114.221 140.396 103.361 134.962 91.8963 131.339C81.0354 127.716 69.2692 124.998 58.4083 121.375C57.5032 121.375 55.6931 121.375 53.8829 121.375C60.2185 126.81 65.6488 132.245 70.1742 136.773C70.7776 137.377 71.3811 137.679 71.9845 137.679C71.9845 138.283 71.9845 138.585 71.9845 138.585C71.3811 137.981 70.7776 137.679 70.1742 137.679C62.9336 133.15 54.7877 128.621 48.4521 123.187C42.1166 118.658 34.8763 116.846 26.7306 115.035C9.23242 112.015 -7.96414 107.185 -24.8589 100.542C-27.5742 99.6363 -29.3842 97.8248 -32.0995 96.0132C-32.0995 97.2209 -32.0995 98.1266 -32.0995 98.7304C-32.0995 99.3343 -32.4015 99.6363 -33.0049 99.6363C-34.2116 97.8247 -35.4181 96.3151 -36.6248 95.1074C-38.435 93.2958 -41.1503 91.4842 -42.9605 89.6726C-59.2519 82.4263 -75.5432 76.0859 -90.9295 68.8397C-95.4549 67.0281 -98.17 64.3108 -102.695 60.6877C-101.79 63.405 -101.791 65.2164 -100.886 67.028C-101.489 67.028 -101.791 67.028 -101.791 67.028C-102.696 66.1222 -103.601 66.1224 -104.506 65.2166C-105.411 61.5934 -107.221 60.6875 -109.936 58.876C-125.323 54.3471 -137.089 43.4777 -144.329 28.0794C-148.855 19.0215 -152.475 9.96368 -156.095 0.90584L-157 0C-157 4.83085 -157 9.96374 -157 15.3984ZM105.472 216.482C106.076 216.482 106.377 216.482 106.377 216.482C117.238 227.352 128.099 236.41 138.96 247.279C151.028 260.564 162.794 274.151 174.258 288.039C183.309 299.513 192.058 311.288 200.506 323.365C210.763 337.254 220.417 351.444 229.468 365.937C240.329 384.052 249.379 403.074 258.43 422.096C263.257 432.965 267.783 443.532 272.006 453.798C275.627 464.667 279.247 475.537 282.867 486.406C283.773 489.124 286.488 491.841 283.772 493.652C281.057 495.464 278.342 492.747 276.532 490.935C270.196 483.689 267.481 475.537 263.861 466.479C255.715 442.929 246.664 419.378 234.898 397.639C228.261 383.147 221.02 369.258 213.176 355.973C201.41 336.046 188.739 318.836 175.163 300.721C166.716 290.455 158.268 279.887 149.821 269.018C142.58 259.96 135.038 251.204 127.194 242.75C119.953 233.692 112.411 224.936 104.567 216.482C104.567 216.482 104.567 216.18 104.567 215.577C104.567 216.18 104.869 216.482 105.472 216.482Z" fill="#C0C0C0"/>
<path d="M242.153 489.125C227.671 489.125 213.492 489.125 199.614 489.125C187.546 489.125 175.781 488.823 164.316 488.219C155.869 488.219 147.723 487.917 139.879 487.313C127.208 486.709 114.537 486.105 101.866 485.502C92.8149 485.502 83.4626 485.2 73.8085 484.596C63.8526 483.69 52.9917 483.69 42.1308 481.878C29.4597 480.671 16.7885 478.859 4.1174 476.444C-11.2689 473.726 -27.5604 471.009 -42.9467 466.48C-54.7128 463.763 -66.4789 460.139 -76.4347 451.987C-79.15 450.176 -80.9602 448.364 -82.7704 446.553C-86.3907 441.118 -85.4852 434.778 -80.0547 430.249C-67.987 419.983 -54.4109 413.039 -39.3262 409.416C-29.3704 406.698 -19.4149 404.887 -8.55391 403.075C1.40195 402.169 11.3577 401.263 21.3135 401.263C26.744 400.358 33.0798 400.358 38.5102 400.358C48.7678 400.358 58.7235 400.962 68.3777 402.169C77.4285 402.773 86.4792 403.679 95.53 404.887C112.727 407.604 129.018 411.227 143.499 422.097C145.913 423.908 147.723 425.72 148.93 427.531C151.645 432.06 152.55 437.495 147.12 441.118C140.784 445.647 132.638 447.459 125.397 449.27C110.916 452.289 96.1336 453.195 81.049 451.987C63.8525 451.082 46.6561 449.27 31.2697 441.118C28.5545 439.307 25.8394 437.495 24.0292 435.683C20.4089 431.154 21.3139 426.625 26.7443 423.908C31.2697 422.096 35.7951 421.191 40.3205 418.474C35.7951 419.379 30.3645 420.285 24.9341 421.191C21.3138 422.097 17.6932 423.908 16.7882 429.343C15.8831 434.777 18.5984 438.401 23.1238 441.118C31.2695 447.459 40.3205 450.176 49.3713 452.893C61.1373 455.611 71.9981 457.422 83.7641 457.422C90.0997 457.422 95.5301 458.328 101.866 457.422C116.347 456.516 130.828 454.705 144.404 449.27C149.835 447.459 155.265 444.741 156.17 437.495C156.17 434.777 156.171 432.06 155.265 430.249C152.55 423.908 147.12 420.285 142.594 416.662C132.638 410.321 122.682 406.698 111.821 404.887C103.374 403.075 94.6252 401.566 85.5744 400.358C80.1439 399.15 74.7136 398.546 69.2831 398.546C50.2765 397.64 31.2694 396.735 12.2628 397.64C-0.408325 397.64 -13.079 400.358 -25.7501 401.263C-37.5161 403.075 -49.2823 406.698 -61.0483 412.133C-70.0991 415.756 -79.1501 420.285 -87.2958 428.437C-94.5364 436.589 -93.6312 447.459 -85.4855 454.705C-74.6246 464.669 -61.0481 469.197 -48.377 472.821C-38.1194 475.84 -27.8622 478.255 -17.6047 480.067C-9.45898 480.973 -1.31317 481.878 6.83252 482.784C18.2968 483.992 29.4596 485.2 40.3205 486.407C43.9408 487.011 47.5612 487.313 51.1815 487.313C57.2154 487.917 63.2493 488.219 69.2831 488.219C79.5406 488.823 89.4964 489.427 99.1506 490.03C105.184 490.03 111.218 490.332 117.252 490.936C128.716 490.936 140.181 490.936 151.645 490.936C168.54 491.54 185.434 491.842 202.329 491.842C210.776 491.842 219.224 491.54 227.672 490.936C232.197 490.936 236.722 490.03 242.153 490.03C242.153 489.427 242.153 489.125 242.153 489.125Z" fill="#C0C0C0"/>
</g>
</svg>
